# xmcd CD database file
#
# Track frame offsets:
#	150
#	18135
#	34215
#	48189
#	63362
#	79989
#	96343
#	114342
#	132670
#	148638
#	168448
#	186666
#	203128
#	221045
#	239031
#	256894
#	274667
#	299601
#	315289
#	330359
#
# Disc length: 4777 seconds
#
# Revision: 0
# Processed by: cddbd v1.5.2PL0 Copyright (c) Steve Scherf et al.
# Submitted via: CDex 1.76
#
DISCID=3012a714
DTITLE=V_A - Hity dla Ciebie CD2
DYEAR=1900
DGENRE=Jazz
TTITLE0=Steve Cole - Say it again
TTITLE1=BWB - It's Your Thing
TTITLE2=Paul Brown, Boney James - Ol' Skoolin'
TTITLE3=Larry Carlton - I can't Tell You Why
TTITLE4=Norman Brown - West Coast Coolin'
TTITLE5=Alex Bugnon - The Lone Crusadaer
TTITLE6=Rick Braun - Grover's Grove
TTITLE7=Greg Adams - Welcome to the jungle/ Crosstown
TTITLE8=Kirk Whalum - Another Beautiful day
TTITLE9=Jeff Golub - If I Ever Lose The Heaven
TTITLE10=Fourplay - Free Range
TTITLE11=Chico Hamilton - Magic Fingers
TTITLE12=Kenny Lattimore - For You
TTITLE13=Norman Brown - Take Me There
TTITLE14=Lee Ritenour - This is love
TTITLE15=Dave Grusin, Lee Ritenour - Get Up, Stand Up
TTITLE16=Mike Stern - Little Shoes
TTITLE17=Boney James - Touch
TTITLE18=Michael Franks - Eggplant
TTITLE19=The Chuck Mangione Quartet - Bellavia
EXTD=
EXTT0=
EXTT1=
EXTT2=
EXTT3=
EXTT4=
EXTT5=
EXTT6=
EXTT7=
EXTT8=
EXTT9=
EXTT10=
EXTT11=
EXTT12=
EXTT13=
EXTT14=
EXTT15=
EXTT16=
EXTT17=
EXTT18=
EXTT19=
PLAYORDER=
